<svg xmlns="http://www.w3.org/2000/svg" viewBox="0 0 600 369.634"><path d="M259.908 144.481c1.036-5.09 2.614-10.056 4.95-14.694 3.304-6.557 8.625-13.759 15.965-13.392 13.345.667 16.348 24.022 15.347 28.025-.777 3.108-24.673 101.104-35.327 144.802-2.074 8.506-13.499 9.839-17.622 2.115-3.865-7.24-6.986-15.531-6.437-22.806 1.175-15.57 18.904-103.302 23.124-124.05z" fill="#bbbaba"/><path d="M369.676 136.985l-60.532 175.842c-4.503 13.081-22.273 15.113-29.46 3.292-5.838-9.599-10.705-20.787-10.705-31.407 0-21.967 29.523-128.384 39.665-164.294 3.69-13.063 11.748-24.663 23.243-31.881 6.376-4.004 14.161-7.006 23.17-7.006 15.2 0 18.842 14.884 19.12 27.908.199 9.369-1.451 18.686-4.501 27.546z" fill="#ccc"/><path d="M554.073 74.787L407.619 348.264c-15.442 28.836-56.97 28.4-71.766-.772-9.965-19.649-16.033-41.21-9.322-59.277 13.38-36.023 51.764-146.39 68.626-195 11.019-31.765 32.584-59.1 61.716-75.886C474.15 7.374 495.633 0 521.371 0c70.712 0 43.346 55.654 36.67 67.58a440.507 440.507 0 0 0-3.968 7.207z" fill="#dadada"/><path d="M587.304 195.061c-.594-.801-1.422-1.37-2.533-1.758l-10.033 7.86c-.388.285-.595.595-.595.931 0 .44.259.905.724 1.37 1.164-.465 2.198-.878 3.155-1.24.93-.362 1.836-.699 2.74-1.035.88-.31 1.81-.594 2.742-.879.93-.31 1.965-.594 3.077-.879 1.06-.284 1.577-.982 1.577-2.094 0-.724-.285-1.474-.854-2.276z" fill="#4c4843"/><path d="M141.037 278.099c1.72 0 3.102 1.043 3.666 2.707h2.934c-.761-3.384-3.328-5.558-6.6-5.558-3.696 0-6.742 2.992-6.742 6.63v5.642c0 1.494.253 2.482.93 3.61a6.736 6.736 0 0 0 5.783 3.273c3.272 0 6.178-2.427 6.629-5.585h-2.934c-.649 1.75-1.946 2.709-3.666 2.709-2.229 0-3.865-1.694-3.865-4.007v-5.417c0-2.34 1.607-4.004 3.865-4.004zm31.038.169h4.654v13.109h-4.654v2.844h12.152v-2.844h-4.654v-13.11h4.654v-2.844h-12.152v2.845zm331.653 0h4.655v13.109h-4.655v2.844h12.153v-2.844h-4.654v-13.11h4.654v-2.844h-12.153v2.845zm-292.87-.338h5.22v16.304h2.876V277.93h5.163v-2.513h-13.26v2.513zm36.417 16.304h12.074v-2.737h-9.224v-5.558h7.87v-2.51h-7.87v-5.388h9.224v-2.624h-12.074v18.817zm78.634-10.015c-.929-.535-2.2-.845-3.949-.96-1.437-.082-1.947-.196-2.482-.562a2.515 2.515 0 0 1-1.129-2.088c0-1.55 1.187-2.51 3.103-2.51 1.75 0 3.217.421 4.657 1.325l1.55-2.37c-1.919-1.213-3.894-1.806-6.065-1.806-3.61 0-6.093 2.202-6.093 5.388a5.38 5.38 0 0 0 2.454 4.515c.988.619 1.889.874 3.694.957 1.637.086 2.344.255 2.907.65.649.423 1.043 1.241 1.043 2.087 0 1.692-1.437 2.682-3.864 2.682-1.974 0-3.497-.538-5.133-1.75l-1.806 2.227c1.834 1.553 4.288 2.399 6.967 2.399 2.285 0 4.373-.79 5.444-2.088a5.55 5.55 0 0 0 1.27-3.497c0-1.861-1.043-3.725-2.568-4.599zm32.922-6.12c1.72 0 3.103 1.043 3.666 2.707h2.934c-.762-3.384-3.328-5.558-6.6-5.558-3.697 0-6.742 2.992-6.742 6.63v5.642c0 1.494.252 2.482.93 3.61a6.74 6.74 0 0 0 5.784 3.273c3.272 0 6.176-2.427 6.628-5.585h-2.934c-.649 1.75-1.947 2.709-3.666 2.709-2.23 0-3.866-1.694-3.866-4.007v-5.417c0-2.34 1.608-4.004 3.866-4.004zm36.951-2.851c-3.722 0-6.683 2.992-6.683 6.772v5.444c0 1.467.252 2.427.873 3.525 1.212 2.116 3.414 3.414 5.84 3.414a6.68 6.68 0 0 0 5.331-2.651c.846-1.13 1.384-2.596 1.384-3.836v-5.896c0-3.838-2.907-6.772-6.745-6.772zm3.894 12.216c0 2.285-1.664 4.063-3.863 4.063a3.872 3.872 0 0 1-3.866-3.866v-5.64c0-2.23 1.692-3.922 3.866-3.922a3.8 3.8 0 0 1 3.3 1.86c.507.819.563 1.016.563 2.427v5.078zm32.745-12.047h-2.848v18.817h12.1v-2.707h-9.252v-16.11zm39.764 0l-6.939 18.817h3.046l1.439-4.204h7.194l1.439 4.204h2.99l-6.828-18.817h-2.34zm-1.636 12.075l2.793-8.21 2.737 8.21h-5.53zm82.168-6.686c0-3.076-2.341-5.389-5.472-5.389h-7.616v18.817h2.876v-8.096h3.667l3.893 8.096h3.359l-4.318-8.406c2.285-.876 3.61-2.737 3.61-5.022zm-10.212 2.792V277.9h4.626c1.664 0 2.907 1.215 2.907 2.851 0 1.692-1.243 2.848-3.048 2.848h-4.485zm49.019-5.557v-2.624h-12.072v18.817h12.072v-2.737H582.3v-5.558h7.87v-2.51h-7.87v-5.388h9.224z"/><path fill="#007393" d="M1.866 276.58h17.823v17.823H1.866z"/><path fill="#c50559" d="M32.439 276.58h17.823v17.823H32.439z"/><path fill="#7e214a" d="M63.012 276.58h17.823v17.823H63.012z"/><path fill="#a0b800" d="M93.585 276.58h17.823v17.823H93.585z"/><path d="M396.106 252.656a14.29 14.29 0 0 1-2.962-.795c-1.01-.384-1.662-.914-1.95-1.588l-17.476-43.184c-.386-.096-.674-.144-.866-.144-.578 0-1.035.41-1.373 1.228l-17.403 41.882a3.297 3.297 0 0 1-1.623 1.697c-.748.361-1.867.662-3.359.904-.386.048-.639.192-.76.432-.119.242-.18.53-.18.866 0 .387.049.773.145 1.157a37.98 37.98 0 0 1 3.179-.288 59.19 59.19 0 0 1 2.96-.073c1.396 0 2.815.035 4.259.108 1.444.07 2.818.157 4.118.253.096-.48.144-.866.144-1.157 0-.288-.06-.54-.182-.757-.12-.217-.348-.349-.684-.397-2.939-.434-4.406-1.156-4.406-2.166 0-.387.119-.866.361-1.445l4.62-11.625h16.106l4.55 11.913c.192.435.288.796.288 1.084 0 .626-.387 1.095-1.157 1.408-.77.314-1.78.591-3.032.831-.144 0-.3.084-.47.253-.17.169-.253.47-.253.901 0 .29.048.677.144 1.157 1.397-.096 2.962-.182 4.694-.253 1.735-.073 3.275-.108 4.624-.108 1.298 0 2.694.035 4.186.108 1.493.07 3.01.157 4.55.253.096-.48.144-.866.144-1.157 0-.432-.083-.732-.252-.901-.17-.17-.397-.3-.684-.397zm-32.207-18.054l7.004-17.693 6.714 17.693H363.9zm82.901-26.897a52.911 52.911 0 0 1-3.49.104c-.983 0-2.12-.026-3.44-.104-1.318-.077-2.688-.155-4.085-.258-.077.49-.129.879-.129 1.163 0 .776.259 1.164.776 1.215 1.887.259 3.18.595 3.904 1.009.724.44 1.086 1.137 1.086 2.094v22.754c0 2.792-.259 5.197-.801 7.188-.518 1.991-1.397 3.62-2.586 4.887-1.215 1.241-2.74 2.172-4.629 2.767-1.887.594-4.162.904-6.851.904-4.784 0-8.145-1.344-10.162-4.007-1.991-2.664-2.974-6.516-2.974-11.506v-22.987c0-.957.388-1.655 1.19-2.094.776-.414 2.094-.75 3.93-1.009.466-.051.724-.44.724-1.215 0-.284-.052-.672-.155-1.163-1.448.103-3 .18-4.68.258-1.267.052-2.405.078-3.413.104h-1.009c-1.086 0-2.223-.026-3.387-.078v29.76c0 2.25.233 4.5.673 6.672.465 2.198 1.396 4.137 2.766 5.818 1.37 1.68 3.336 3.05 5.87 4.085 2.56 1.034 5.895 1.551 10.032 1.551 3.62 0 6.62-.44 9.05-1.344 2.404-.88 4.344-2.146 5.792-3.775 1.473-1.655 2.533-3.594 3.154-5.818.62-2.25.93-4.732.93-7.473v-24.279c0-.957.363-1.655 1.061-2.12.698-.466 1.94-.776 3.697-.983.259-.051.44-.206.595-.465.13-.259.207-.517.207-.75 0-.284-.052-.672-.13-1.163-1.163.103-2.326.18-3.516.258zm-369.825 0a52.911 52.911 0 0 1-3.49.104c-.983 0-2.12-.026-3.44-.104-1.318-.077-2.688-.155-4.085-.258-.077.49-.129.879-.129 1.163 0 .776.259 1.164.776 1.215 1.887.259 3.18.595 3.904 1.009.724.44 1.086 1.137 1.086 2.094v22.754c0 2.792-.259 5.197-.801 7.188-.518 1.991-1.397 3.62-2.586 4.887-1.215 1.241-2.74 2.172-4.629 2.767-1.887.594-4.162.904-6.851.904-4.784 0-8.145-1.344-10.162-4.007-1.991-2.664-2.974-6.516-2.974-11.506v-22.987c0-.957.388-1.655 1.19-2.094.776-.414 2.094-.75 3.93-1.009.466-.051.724-.44.724-1.215 0-.284-.052-.672-.155-1.163-1.448.103-3 .18-4.68.258-1.267.052-2.405.078-3.413.104H40.18c-1.086 0-2.223-.026-3.387-.078v29.76c0 2.25.233 4.5.673 6.672.465 2.198 1.396 4.137 2.766 5.818 1.37 1.68 3.336 3.05 5.87 4.085 2.56 1.034 5.895 1.551 10.032 1.551 3.62 0 6.62-.44 9.05-1.344 2.404-.88 4.344-2.146 5.792-3.775 1.473-1.655 2.533-3.594 3.154-5.818.62-2.25.93-4.732.93-7.473v-24.279c0-.957.363-1.655 1.061-2.12.698-.466 1.94-.776 3.697-.983.259-.051.44-.206.595-.465.13-.259.207-.517.207-.75 0-.284-.052-.672-.13-1.163-1.163.103-2.326.18-3.516.258zm522.275 35.863a1.497 1.497 0 0 0-.776-.233c-.569 0-.93.181-1.06.518a45.045 45.045 0 0 1-1.81 3.18c-.646.957-1.344 1.784-2.146 2.482-.775.698-1.706 1.241-2.74 1.655-1.035.414-2.25.62-3.646.62h-3.956c-3 0-5.146-.18-6.439-.517-1.292-.336-1.939-1.008-1.939-2.017v-17.039h11.248c.982 0 1.655.466 2.068 1.422.414.931.724 2.069.983 3.413.13.62.595.931 1.37.931a4.14 4.14 0 0 0 1.086-.13 67.845 67.845 0 0 1-.31-4.007c-.026-1.19-.052-2.172-.052-3 0-1.008.026-2.197.104-3.542.077-1.344.155-2.56.258-3.594a4.787 4.787 0 0 0-.595-.155 2.902 2.902 0 0 0-.568-.077c-.724 0-1.164.31-1.293.93-.259 1.37-.569 2.509-.983 3.44-.413.93-1.086 1.421-2.068 1.421h-11.248v-18.487h10.679c1.448 0 2.663.13 3.646.414.982.284 1.835.724 2.534 1.319.698.568 1.292 1.292 1.835 2.197.518.88 1.086 1.965 1.655 3.206.207.44.595.647 1.241.647.466 0 .905-.13 1.293-.44-.543-.853-.905-1.913-1.086-3.154-.18-1.267-.362-2.43-.491-3.543a26.073 26.073 0 0 0-.543-2.87c-.233-.775-.647-1.189-1.267-1.189-.543 0-1.603.078-3.18.233-1.603.129-3.465.207-5.637.207h-17.48v41.887c0 .957-.387 1.63-1.189 2.017-.801.388-2.094.75-3.93 1.086-.49.103-.724.491-.724 1.163 0 .285.052.673.13 1.138 1.448-.077 2.973-.18 4.55-.233a93.196 93.196 0 0 1 4.5-.129h15.798c.62 0 1.37.026 2.25.078.852.051 1.706.077 2.559.103.827.026 1.629.078 2.353.13.724.025 1.267.051 1.655.051.491 0 .879-.388 1.19-1.215.31-.828.62-1.81.904-2.974.285-1.137.595-2.353.905-3.645.31-1.267.672-2.353 1.112-3.284-.233-.13-.491-.285-.75-.414zm-57.298 9.23c-1.836-.387-3.103-.749-3.75-1.111-.697-.362-1.033-1.034-1.033-1.99v-41.888h-3.388c-1.24 0-2.663-.026-4.214-.104a206.115 206.115 0 0 1-4.525-.258c-.103.49-.13.879-.13 1.163 0 .285.027.543.13.802.103.232.284.362.595.413 1.81.285 3.077.647 3.749 1.06.672.414 1.008 1.086 1.008 2.043v41.836h1.345c.724-.026 1.396-.026 2.042-.026.673 0 1.37 0 2.069.026.724.026 1.448.078 2.198.103 1.5.052 2.973.156 4.473.233.103-.465.155-.853.155-1.138 0-.672-.258-1.06-.724-1.163zm-370.6 0c-1.837-.387-3.104-.749-3.75-1.111-.698-.362-1.034-1.034-1.034-1.99v-41.888h-3.388c-1.24 0-2.663-.026-4.214-.104a206.098 206.098 0 0 1-4.525-.258c-.103.49-.13.879-.13 1.163 0 .285.027.543.13.802.103.232.284.362.595.413 1.81.285 3.077.647 3.749 1.06.672.414 1.008 1.086 1.008 2.043v41.836h1.345c.724-.026 1.396-.026 2.042-.026.673 0 1.37 0 2.069.026.724.026 1.448.078 2.198.103 1.5.052 2.973.156 4.473.233.103-.465.155-.853.155-1.138 0-.672-.258-1.06-.724-1.163zm333.315-19.934a14.516 14.516 0 0 0-4.189-2.12 24.44 24.44 0 0 0-4.628-1.06v-.208c1.319-.388 2.482-.93 3.542-1.654a13.104 13.104 0 0 0 2.715-2.457c.75-.93 1.345-1.913 1.758-2.973.44-1.06.673-2.146.673-3.232 0-1.5-.285-2.948-.853-4.319-.543-1.37-1.423-2.585-2.638-3.645-1.19-1.06-2.74-1.888-4.654-2.482-1.888-.595-4.189-.905-6.878-.905h-8.895c-.93 0-2.016-.026-3.257-.052v41.94c0 .956-.362 1.628-1.086 1.99-.699.362-2.017.724-3.879 1.112-.543.103-.801.491-.801 1.163v.362c0 .13.025.259.077.362 0 .181.026.337.078.414 1.086-.026 2.172-.077 3.232-.13.93-.05 1.887-.103 2.922-.154a56.4 56.4 0 0 1 2.792-.078h11.403c2.508 0 4.783-.31 6.852-.93s3.852-1.5 5.326-2.664a11.822 11.822 0 0 0 3.387-4.266c.802-1.681 1.19-3.594 1.19-5.715 0-1.861-.388-3.49-1.164-4.86-.75-1.371-1.784-2.509-3.025-3.44zm-20.504-22.082h1.086c4.24 0 7.266.698 9.127 2.12 1.862 1.422 2.793 3.594 2.793 6.542 0 3.232-.931 5.585-2.793 7.059-1.861 1.5-4.887 2.25-9.127 2.25h-1.086v-17.971zm16.315 36.122c-.569 1.24-1.396 2.223-2.456 2.921-1.06.724-2.327 1.241-3.827 1.526-1.5.284-3.154.44-4.99.44-.517 0-1.06-.026-1.655-.104a6.842 6.842 0 0 1-1.629-.414c-.491-.18-.93-.44-1.267-.775s-.491-.776-.491-1.319v-17.453h3.827c4.137 0 7.395.879 9.773 2.663 2.405 1.784 3.594 4.396 3.594 7.86 0 1.888-.31 3.44-.879 4.655zm-169.282-32.166c-2.043-2.12-4.577-3.8-7.628-5.042-3.05-1.267-6.62-1.887-10.653-1.887h-16.858c-.362 0-.724 0-1.112-.052v41.94c0 .852-.388 1.499-1.164 1.887-.775.362-2.042.775-3.826 1.215-.543.103-.802.491-.802 1.163 0 .285.052.673.155 1.138 1.474-.077 3.025-.18 4.629-.233 1.577-.077 2.999-.129 4.24-.129h14.816c4.085 0 7.653-.672 10.73-2.043 3.051-1.37 5.585-3.18 7.576-5.43a22.396 22.396 0 0 0 4.474-7.55 25.06 25.06 0 0 0 1.473-8.429c0-3.232-.491-6.257-1.5-9.101-1.034-2.845-2.533-5.327-4.55-7.447zm-2.612 25.857c-.724 2.352-1.887 4.37-3.464 6.024-1.578 1.655-3.646 2.948-6.206 3.827-2.56.905-5.688 1.345-9.386 1.345-1.551 0-2.818-.052-3.827-.156-1.008-.077-1.81-.232-2.379-.413-.594-.207-1.008-.466-1.24-.802-.233-.336-.363-.75-.363-1.241v-38.397h6.284c7.084 0 12.462 1.784 16.134 5.378 3.698 3.568 5.533 9.076 5.533 16.497 0 2.921-.362 5.585-1.086 7.938zm-97.634 2.74c-.594 0-.956.181-1.086.518a44.967 44.967 0 0 1-1.81 3.18 11.783 11.783 0 0 1-2.146 2.482c-.776.698-1.706 1.241-2.74 1.655-1.035.414-2.25.62-3.646.62h-3.956c-3 0-5.146-.18-6.439-.517-1.293-.336-1.939-1.008-1.939-2.017v-17.039h11.248c.982 0 1.654.466 2.068 1.422.414.931.724 2.069.983 3.413.129.62.594.931 1.37.931.336 0 .698-.026 1.086-.13-.155-1.499-.258-2.818-.284-4.007a70.468 70.468 0 0 1-.078-3c0-1.008.026-2.197.104-3.542.077-1.344.155-2.56.258-3.594a4.784 4.784 0 0 0-.595-.155 2.676 2.676 0 0 0-.568-.077c-.724 0-1.164.31-1.293.93-.259 1.37-.57 2.509-.983 3.44-.414.93-1.086 1.421-2.068 1.421h-11.248v-18.487h10.679c1.448 0 2.663.13 3.646.414s1.835.724 2.534 1.319a7.768 7.768 0 0 1 1.835 2.197c.543.88 1.086 1.965 1.655 3.206.207.44.62.647 1.241.647.466 0 .905-.13 1.293-.44-.517-.853-.879-1.913-1.086-3.154-.18-1.267-.362-2.43-.491-3.543a26.112 26.112 0 0 0-.543-2.87c-.233-.775-.646-1.189-1.267-1.189-.543 0-1.603.078-3.18.233a70.32 70.32 0 0 1-5.637.207h-14.221c-.285 0-.595 0-.905-.026-.724 0-1.5 0-2.353-.052v41.965c0 .957-.388 1.63-1.19 2.017-.801.388-2.094.75-3.93 1.086-.491.103-.724.491-.724 1.163 0 .285.052.673.156 1.138 1.422-.077 2.947-.18 4.55-.233a92.171 92.171 0 0 1 4.473-.129h15.799c.646 0 1.37.026 2.25.078.852.051 1.706.077 2.559.103.853.026 1.629.078 2.353.13.724.025 1.267.051 1.655.051.49 0 .879-.388 1.19-1.215.31-.828.62-1.81.904-2.974.285-1.137.595-2.353.905-3.645.31-1.267.672-2.353 1.112-3.284-.233-.13-.491-.285-.75-.414a1.483 1.483 0 0 0-.75-.233zm-94.17-.077c-.413 0-.723.207-.852.595a23.86 23.86 0 0 1-1.474 3.36c-.569.983-1.215 1.81-1.94 2.483-.698.672-1.577 1.19-2.585 1.551-1.008.363-2.224.544-3.62.544h-7.86c-1.267 0-2.25-.181-2.974-.518-.724-.336-1.06-.905-1.06-1.732v-36.096c0-1.215.491-2.042 1.474-2.482.982-.465 2.508-.827 4.576-1.06.544-.052.802-.465.802-1.293 0-.284-.052-.672-.155-1.163-1.448.103-3.077.18-4.913.258-1.474.052-2.896.104-4.266.104h-.931c-.957 0-2.069-.026-3.387-.078v42.043c0 .853-.362 1.5-1.086 1.913-.724.414-2.069.776-4.034 1.112-.491.103-.724.491-.724 1.163 0 .285.052.673.13 1.138 1.55-.077 3.154-.18 4.835-.233 1.706-.077 3.102-.129 4.188-.129h18.074c.905 0 1.965.078 3.206.181 1.216.13 2.25.181 3.077.181.336 0 .62-.052.853-.207.233-.155.388-.49.44-1.008.233-2.017.517-3.827.827-5.456.31-1.603.647-3.128.983-4.576-.284-.156-.569-.285-.827-.414-.285-.104-.518-.181-.776-.181zM9.93 207.783c-.88 0-1.888-.026-3.051-.078a233.025 233.025 0 0 1-4.784-.258c-.103.49-.155.879-.155 1.163 0 .724.233 1.138.724 1.215 1.914.285 3.232.647 3.93 1.06.699.414 1.06 1.086 1.06 2.043v38.5c0 3.362-.568 6.387-1.68 9.024-1.086 2.638-2.974 5.25-5.611 7.81-.258.232-.362.516-.362.852 0 .543.31 1.035.931 1.526 2.922-2.017 5.3-3.904 7.085-5.663 1.758-1.758 3.154-3.62 4.11-5.559.957-1.965 1.578-4.137 1.862-6.542.31-2.404.44-5.3.44-8.661V207.73a85.301 85.301 0 0 1-3.387.078c-.336 0-.724 0-1.112-.026z" fill="#4c4843"/></svg>