<svg xmlns="http://www.w3.org/2000/svg" xmlns:xlink="http://www.w3.org/1999/xlink" width="375" zoomAndPan="magnify" viewBox="0 0 281.25 281.249989" height="375" preserveAspectRatio="xMidYMid meet" version="1.0"><defs><clipPath id="1f3906b235"><path d="M 0 0 L 280.503906 0 L 280.503906 280.503906 L 0 280.503906 Z M 0 0 " clip-rule="nonzero"/></clipPath><clipPath id="2390739d77"><path d="M 0 120.234375 L 280.503906 120.234375 L 280.503906 153.242188 L 0 153.242188 Z M 0 120.234375 " clip-rule="nonzero"/></clipPath></defs><g clip-path="url(#1f3906b235)"><path fill="#ffffff" d="M 0 0 L 280.503906 0 L 280.503906 280.503906 L 0 280.503906 Z M 0 0 " fill-opacity="1" fill-rule="nonzero"/><path fill="#ffffff" d="M 0 0 L 280.503906 0 L 280.503906 280.503906 L 0 280.503906 Z M 0 0 " fill-opacity="1" fill-rule="nonzero"/><rect x="-28.125" width="337.5" fill="#ffffff" y="-28.124999" height="337.499986" fill-opacity="1"/><rect x="-28.125" width="337.5" fill="#ffffff" y="-28.124999" height="337.499986" fill-opacity="1"/></g><path stroke-linecap="butt" transform="matrix(0.00234455, -0.96642, 0.96642, 0.00234455, 139.620563, 232.281843)" fill="none" stroke-linejoin="miter" d="M -0.00221159 0.50176 L 206.098352 0.502963 " stroke="#62b9cb" stroke-width="1" stroke-opacity="1" stroke-miterlimit="4"/><path fill="#62b9cb" d="M 19.394531 193.09375 L 51.324219 193.09375 L 51.324219 191.902344 C 41.113281 191.902344 40.40625 183.476562 40.40625 160.097656 L 40.40625 77.492188 C 47.644531 74.882812 53.339844 73.691406 62.125 73.691406 C 84.203125 73.691406 98.089844 85.796875 98.089844 105.5 C 98.089844 119.746094 88.476562 134.339844 73.636719 134.339844 C 62.597656 134.339844 57.140625 127.578125 50.136719 127.578125 C 48 127.578125 45.980469 128.765625 45.980469 131.613281 C 45.980469 139.683594 58.566406 140.160156 70.078125 157.484375 C 88.828125 185.613281 92.152344 193.09375 97.609375 193.09375 L 115.769531 193.09375 L 115.769531 191.902344 C 102.242188 191.902344 91.203125 170.777344 81.824219 156.179688 C 72.210938 141.226562 47.171875 139.566406 47.171875 131.851562 C 47.171875 129.121094 49.1875 128.765625 50.613281 128.765625 C 55.597656 128.765625 63.191406 136.359375 74.351562 136.359375 C 95.003906 136.359375 108.292969 121.640625 108.292969 105.382812 C 108.292969 86.035156 94.167969 72.03125 68.890625 72.03125 C 55.125 72.03125 46.695312 74.402344 33.640625 74.402344 L 19.394531 74.402344 L 19.394531 75.589844 C 29.605469 75.589844 30.316406 84.015625 30.316406 107.402344 L 30.316406 160.097656 C 30.316406 183.476562 29.605469 191.902344 19.394531 191.902344 Z M 19.394531 193.09375 " fill-opacity="1" fill-rule="nonzero"/><path fill="#62b9cb" d="M 161.21875 133.746094 C 161.21875 169.355469 184.480469 195.46875 214.035156 195.46875 C 231.007812 195.46875 245.128906 186.921875 254.152344 171.964844 L 254.152344 154.871094 C 254.152344 135.886719 237.179688 133.746094 220.917969 133.746094 C 205.960938 133.746094 191.484375 135.648438 191.484375 127.695312 C 191.484375 122.113281 198.25 119.625 205.609375 119.625 C 217.359375 119.625 233.378906 131.019531 247.625 131.019531 C 254.984375 131.019531 261.507812 126.867188 259.609375 119.386719 C 259.609375 119.386719 259.25 122.949219 250.945312 122.949219 C 235.632812 122.949219 225.90625 112.148438 208.21875 112.148438 C 201.09375 112.148438 190.175781 117.015625 190.175781 127.101562 C 190.175781 134.105469 196.941406 135.171875 205.609375 135.171875 C 221.511719 135.171875 243.945312 131.730469 243.945312 154.871094 L 243.945312 171.609375 C 243.945312 175.882812 234.925781 194.042969 214.035156 194.042969 C 191.128906 194.042969 171.902344 168.402344 171.902344 133.746094 C 171.902344 99.09375 189.46875 73.457031 214.035156 73.457031 C 239.433594 73.457031 246.671875 93.394531 246.671875 93.394531 L 247.859375 93.394531 L 247.859375 77.492188 C 238.71875 74.402344 228.632812 72.03125 214.035156 72.03125 C 184.480469 72.03125 161.21875 98.140625 161.21875 133.746094 Z M 161.21875 133.746094 " fill-opacity="1" fill-rule="nonzero"/><g clip-path="url(#2390739d77)"><path fill="#ffffff" d="M -0.632812 120.234375 L 282.78125 120.234375 L 282.78125 153.242188 L -0.632812 153.242188 Z M -0.632812 120.234375 " fill-opacity="1" fill-rule="nonzero"/></g><path fill="#62b9cb" d="M 45.933594 142.777344 L 42.933594 138.566406 C 42.597656 138.609375 42.25 138.628906 41.886719 138.628906 L 38.363281 138.628906 L 38.363281 142.777344 L 36.972656 142.777344 L 36.972656 129.667969 L 41.886719 129.667969 C 43.546875 129.667969 44.855469 130.070312 45.8125 130.878906 C 46.765625 131.671875 47.242188 132.765625 47.242188 134.160156 C 47.242188 135.179688 46.980469 136.046875 46.457031 136.757812 C 45.933594 137.472656 45.191406 137.980469 44.242188 138.285156 L 47.441406 142.777344 Z M 41.847656 137.441406 C 43.144531 137.441406 44.140625 137.152344 44.824219 136.574219 C 45.511719 136 45.851562 135.195312 45.851562 134.160156 C 45.851562 133.101562 45.511719 132.285156 44.824219 131.722656 C 44.140625 131.160156 43.144531 130.878906 41.847656 130.878906 L 38.363281 130.878906 L 38.363281 137.441406 Z M 41.847656 137.441406 " fill-opacity="1" fill-rule="nonzero"/><path fill="#62b9cb" d="M 62.210938 142.898438 C 60.90625 142.898438 59.726562 142.609375 58.667969 142.03125 C 57.621094 141.441406 56.796875 140.640625 56.191406 139.636719 C 55.597656 138.617188 55.304688 137.480469 55.304688 136.234375 C 55.304688 134.972656 55.597656 133.835938 56.191406 132.828125 C 56.796875 131.8125 57.621094 131.011719 58.667969 130.433594 C 59.726562 129.84375 60.90625 129.546875 62.210938 129.546875 C 63.5 129.546875 64.667969 129.839844 65.714844 130.414062 C 66.761719 130.992188 67.578125 131.792969 68.171875 132.808594 C 68.773438 133.832031 69.078125 134.972656 69.078125 136.234375 C 69.078125 137.480469 68.773438 138.617188 68.171875 139.636719 C 67.578125 140.65625 66.761719 141.457031 65.714844 142.03125 C 64.667969 142.609375 63.5 142.898438 62.210938 142.898438 Z M 62.210938 141.648438 C 63.242188 141.648438 64.175781 141.417969 65.011719 140.945312 C 65.839844 140.476562 66.488281 139.832031 66.964844 139.011719 C 67.445312 138.179688 67.6875 137.253906 67.6875 136.234375 C 67.6875 135.199219 67.445312 134.273438 66.964844 133.453125 C 66.488281 132.625 65.839844 131.972656 65.011719 131.5 C 64.175781 131.03125 63.242188 130.796875 62.210938 130.796875 C 61.164062 130.796875 60.21875 131.03125 59.371094 131.5 C 58.539062 131.972656 57.882812 132.625 57.398438 133.453125 C 56.917969 134.273438 56.675781 135.199219 56.675781 136.234375 C 56.675781 137.253906 56.917969 138.179688 57.398438 139.011719 C 57.882812 139.832031 58.539062 140.476562 59.371094 140.945312 C 60.21875 141.417969 61.164062 141.648438 62.210938 141.648438 Z M 62.210938 141.648438 " fill-opacity="1" fill-rule="nonzero"/><path fill="#62b9cb" d="M 91.753906 129.667969 L 91.753906 142.777344 L 90.421875 142.777344 L 90.421875 132.285156 L 85.269531 141.105469 L 84.625 141.105469 L 79.472656 132.347656 L 79.472656 142.777344 L 78.140625 142.777344 L 78.140625 129.667969 L 79.289062 129.667969 L 84.96875 139.394531 L 90.605469 129.667969 Z M 91.753906 129.667969 " fill-opacity="1" fill-rule="nonzero"/><path fill="#62b9cb" d="M 110.195312 139.273438 L 102.90625 139.273438 L 101.316406 142.777344 L 99.886719 142.777344 L 105.867188 129.667969 L 107.238281 129.667969 L 113.238281 142.777344 L 111.765625 142.777344 Z M 109.691406 138.144531 L 106.550781 131.117188 L 103.410156 138.144531 Z M 109.691406 138.144531 " fill-opacity="1" fill-rule="nonzero"/><path fill="#62b9cb" d="M 121.367188 129.667969 L 122.757812 129.667969 L 122.757812 142.777344 L 121.367188 142.777344 Z M 121.367188 129.667969 " fill-opacity="1" fill-rule="nonzero"/><path fill="#62b9cb" d="M 143.945312 129.667969 L 143.945312 142.777344 L 142.796875 142.777344 L 134.378906 132.144531 L 134.378906 142.777344 L 132.992188 142.777344 L 132.992188 129.667969 L 134.136719 129.667969 L 142.574219 140.300781 L 142.574219 129.667969 Z M 143.945312 129.667969 " fill-opacity="1" fill-rule="nonzero"/><path fill="#62b9cb" d="M 174.289062 136.234375 L 175.617188 136.234375 L 175.617188 141.226562 C 175 141.765625 174.269531 142.183594 173.421875 142.472656 C 172.589844 142.757812 171.71875 142.898438 170.804688 142.898438 C 169.488281 142.898438 168.308594 142.609375 167.261719 142.03125 C 166.214844 141.457031 165.390625 140.65625 164.785156 139.636719 C 164.183594 138.617188 163.878906 137.480469 163.878906 136.234375 C 163.878906 134.972656 164.183594 133.832031 164.785156 132.808594 C 165.390625 131.792969 166.214844 130.992188 167.261719 130.414062 C 168.308594 129.839844 169.488281 129.546875 170.804688 129.546875 C 171.8125 129.546875 172.730469 129.710938 173.566406 130.03125 C 174.394531 130.351562 175.101562 130.828125 175.679688 131.441406 L 174.8125 132.328125 C 173.777344 131.308594 172.460938 130.796875 170.867188 130.796875 C 169.804688 130.796875 168.84375 131.03125 167.988281 131.5 C 167.140625 131.972656 166.46875 132.625 165.972656 133.453125 C 165.492188 134.273438 165.25 135.199219 165.25 136.234375 C 165.25 137.253906 165.492188 138.179688 165.972656 139.011719 C 166.46875 139.832031 167.140625 140.476562 167.988281 140.945312 C 168.832031 141.417969 169.785156 141.648438 170.847656 141.648438 C 172.199219 141.648438 173.347656 141.316406 174.289062 140.640625 Z M 174.289062 136.234375 " fill-opacity="1" fill-rule="nonzero"/><path fill="#62b9cb" d="M 185.480469 129.667969 L 186.871094 129.667969 L 186.871094 142.777344 L 185.480469 142.777344 Z M 185.480469 129.667969 " fill-opacity="1" fill-rule="nonzero"/><path fill="#62b9cb" d="M 197.101562 129.667969 L 198.492188 129.667969 L 198.492188 141.566406 L 205.820312 141.566406 L 205.820312 142.777344 L 197.101562 142.777344 Z M 197.101562 129.667969 " fill-opacity="1" fill-rule="nonzero"/><path fill="#62b9cb" d="M 219.832031 142.898438 C 218.53125 142.898438 217.347656 142.609375 216.289062 142.03125 C 215.242188 141.441406 214.417969 140.640625 213.8125 139.636719 C 213.21875 138.617188 212.929688 137.480469 212.929688 136.234375 C 212.929688 134.972656 213.21875 133.835938 213.8125 132.828125 C 214.417969 131.8125 215.242188 131.011719 216.289062 130.433594 C 217.347656 129.84375 218.53125 129.546875 219.832031 129.546875 C 221.121094 129.546875 222.289062 129.839844 223.335938 130.414062 C 224.382812 130.992188 225.199219 131.792969 225.792969 132.808594 C 226.398438 133.832031 226.699219 134.972656 226.699219 136.234375 C 226.699219 137.480469 226.398438 138.617188 225.792969 139.636719 C 225.199219 140.65625 224.382812 141.457031 223.335938 142.03125 C 222.289062 142.609375 221.121094 142.898438 219.832031 142.898438 Z M 219.832031 141.648438 C 220.867188 141.648438 221.796875 141.417969 222.632812 140.945312 C 223.464844 140.476562 224.113281 139.832031 224.585938 139.011719 C 225.070312 138.179688 225.308594 137.253906 225.308594 136.234375 C 225.308594 135.199219 225.070312 134.273438 224.585938 133.453125 C 224.113281 132.625 223.464844 131.972656 222.632812 131.5 C 221.796875 131.03125 220.867188 130.796875 219.832031 130.796875 C 218.785156 130.796875 217.839844 131.03125 216.996094 131.5 C 216.160156 131.972656 215.503906 132.625 215.023438 133.453125 C 214.539062 134.273438 214.296875 135.199219 214.296875 136.234375 C 214.296875 137.253906 214.539062 138.179688 215.023438 139.011719 C 215.503906 139.832031 216.160156 140.476562 216.996094 140.945312 C 217.839844 141.417969 218.785156 141.648438 219.832031 141.648438 Z M 219.832031 141.648438 " fill-opacity="1" fill-rule="nonzero"/><path fill="#62b9cb" d="M 238.300781 130.878906 L 233.710938 130.878906 L 233.710938 129.667969 L 244.300781 129.667969 L 244.300781 130.878906 L 239.691406 130.878906 L 239.691406 142.777344 L 238.300781 142.777344 Z M 238.300781 130.878906 " fill-opacity="1" fill-rule="nonzero"/></svg>