<svg xmlns="http://www.w3.org/2000/svg" width="664.612" height="246.262" viewBox="0 0 664.612 246.262" enable-background="new 0 0 664.6122437 246.2617798"><filter id="a"><feGaussianBlur stdDeviation="7"/></filter><path d="M260.924 150.894l59.463-23.244 42.462 47.672-3.742-63.731 58.466-25.67-12.299-3.216-49.477-12.919-3.798-38.1-2.52-25.424-34.452 53.764-62.377-13.615 40.488 49.364-32.214 55.119zM20.825 54.815H8.442V30.39H2.464v29.464h18.361v-5.039zm23.615 5.039h5.978V47.812l9.18-17.422h-6.874l-5.295 10.975-5.252-10.975h-6.918l9.18 17.422v12.042zm45.392.384c6.064 0 9.779-2.903 10.761-9.522h-5.68c-.64 2.989-2.092 4.484-5.08 4.484-3.46 0-5.295-2.52-5.295-7.985V43.03c0-5.637 1.836-7.985 5.294-7.985 2.904 0 4.527 1.708 5.082 4.483h5.722c-.982-6.447-4.954-9.522-10.804-9.522-6.618 0-11.273 3.929-11.273 13.024v4.185c0 9.01 4.655 13.023 11.273 13.023zm50.858-5.423h-12.383V47.13h11.102V42.09h-11.102v-6.618h12.383V30.39H122.33v29.464h18.361v-5.039zm-2.989-32.153h-6.277l-3.416 5.508h5.295l4.398-5.508zm43 32.153H168.32V47.13h11.102V42.09h-11.102v-6.618h12.383V30.39H162.34v29.464h18.36v-5.039zm-167.86 52.383c6.063 0 9.778-2.903 10.76-9.522h-5.68c-.64 2.99-2.092 4.484-5.08 4.484-3.46 0-5.296-2.52-5.296-7.985V89.99c0-5.637 1.837-7.985 5.295-7.985 2.904 0 4.527 1.708 5.082 4.483h5.722c-.983-6.447-4.954-9.522-10.804-9.522-6.618 0-11.273 3.929-11.273 13.024v4.185c0 9.01 4.655 13.023 11.273 13.023zm50.857-24.766V77.35H45.337v29.464h5.978V94.772h11.102v-5.038H51.315v-7.302h12.383zm27.586-5.082l-10.248 29.464h6.405l1.794-5.594h9.863l1.794 5.594h6.362L97.006 77.35h-5.722zm-.47 18.832l3.331-10.377 3.33 10.377h-6.66zM12.84 153.76c6.662 0 10.846-4.014 10.846-13.023v-2.69H12.968v5.038h4.954c-.342 3.544-1.708 5.637-5.082 5.637-3.458 0-5.295-2.349-5.295-7.985v-4.185c0-5.637 1.837-7.985 5.295-7.985 2.99 0 4.57 1.793 5.082 4.483h5.722c-.897-6.02-4.612-9.522-10.804-9.522-6.618 0-11.273 3.929-11.273 13.45v3.759c0 9.01 4.655 13.023 11.273 13.023zm49.321-.384h6.576l-6.106-12.554c3.202-1.324 5.039-3.929 5.039-7.9 0-5.978-4.228-9.01-11.017-9.01H46.106v29.464h5.978v-11.572h4.782l5.295 11.572zm-10.077-16.61v-7.772h4.014c3.544 0 5.593.854 5.593 3.928 0 3.075-2.05 3.843-5.593 3.843h-4.014zm37.876 16.61h18.362v-5.039H95.938v-7.686h11.103v-5.039H95.938v-6.618h12.384v-5.082H89.96v29.464zm51.541 0v-24.382h8.113v-5.082H127.41v5.082h8.113v24.382h5.978zm24.213 0h6.405l1.794-5.594h9.864l1.793 5.594h6.362l-10.248-29.464h-5.722l-10.248 29.464zm16.44-10.632h-6.662l3.331-10.377 3.33 10.377zM46.692 221.43c-2.013-4.027-5.465-6.04-11.505-6.616 4.506-1.246 6.52-2.109 8.82-3.547 4.027-2.493 6.424-7.383 6.424-12.752 0-7.286-4.123-13.518-10.546-15.915-3.356-1.247-5.849-1.534-13.615-1.534H0v63.95h12.656v-25.887h9.97c10.74 0 13.903 3.93 14.382 17.928.192 4.603.48 6.04 1.63 7.958h11.985c-1.342-2.78-1.534-3.93-2.014-10.163-.575-9.3-.767-10.546-1.917-13.422zm-20.805-11.697H12.656v-18.6H25.79c2.972 0 5.369.287 6.807.767 3.452 1.246 5.56 4.41 5.56 8.437 0 6.04-4.41 9.396-12.271 9.396zm53.21-12.656c-14.093 0-24.256 10.355-24.256 24.545 0 14.19 10.163 24.64 23.873 24.64 14.382 0 24.545-10.163 24.545-24.64 0-14.19-10.163-24.545-24.161-24.545zm0 39.885c-7.478 0-12.272-6.137-12.272-15.532 0-8.917 4.986-15.053 12.273-15.053s12.176 6.136 12.176 15.245c0 9.203-4.89 15.34-12.176 15.34zm55.895-39.885c-5.369 0-10.163 2.301-13.71 6.616v-22.627h-11.697v63.95h11.697v-5.082c4.506 4.698 8.15 6.328 13.615 6.328 11.888 0 20.517-10.26 20.517-24.449 0-13.998-8.82-24.736-20.422-24.736zm-2.684 39.885c-6.903 0-11.601-6.232-11.601-15.149 0-8.916 4.698-14.957 11.6-14.957 6.616 0 11.123 6.04 11.123 15.053 0 9.108-4.41 15.053-11.122 15.053zm49.855-39.885c-13.518 0-22.722 9.971-22.722 24.64 0 14.382 9.779 24.545 23.681 24.545 10.642 0 19.175-5.849 21.956-15.245h-12.08c-2.11 3.931-5.466 5.945-10.068 5.945-6.615 0-10.642-4.41-11.505-12.56h34.132c-.287-17.066-9.108-27.325-23.394-27.325zm-10.45 19.655c.958-6.807 4.89-10.642 10.834-10.642 6.232 0 10.067 3.835 10.93 10.642h-21.764zm51.869-11.985v-6.424h-11.697v46.692h11.697v-23.681c0-8.533 4.794-13.806 12.656-13.806.383 0 1.246 0 2.013.096v-10.068c-1.534-.191-2.205-.191-3.068-.191-4.602 0-8.437 2.397-11.601 7.382zm39.308 31.831c-1.917 0-3.547-.575-4.314-1.63-.767-.958-.959-2.013-.959-5.56v-23.682h8.82v-7.383h-8.82v-15.532H245.92v15.532h-6.52v7.383h6.52v23.682c0 4.218.096 6.136.48 7.957.67 3.452 2.397 5.657 5.56 6.903 1.63.671 2.493.767 6.808.767h8.341v-8.629l-.959.096-3.26.096zm73.921-22.53c-3.164-2.781-7.095-4.411-15.916-6.424-10.45-2.493-11.121-2.685-13.23-3.644-2.59-1.15-4.123-3.547-4.123-6.328 0-4.698 4.602-7.766 11.888-7.766 8.054 0 12.177 2.877 13.327 9.492h11.793c-1.15-6.04-2.588-9.492-5.369-12.464-4.218-4.602-11.122-7.095-19.75-7.095-14.765 0-24.45 7.67-24.45 19.176 0 5.56 2.302 10.354 6.425 13.23 2.972 2.014 6.423 3.26 15.82 5.657 8.628 2.205 11.888 3.26 13.901 4.698 1.534 1.055 2.493 2.972 2.493 5.082 0 5.273-5.273 8.533-13.806 8.533-5.081 0-9.396-1.438-11.697-3.931-1.63-1.726-2.301-3.644-2.493-7h-12.176c.767 13.136 10.834 20.998 26.654 20.998 15.436 0 26.078-8.15 26.078-19.847 0-4.793-2.013-9.396-5.369-12.368zm32.502 22.914c-6.903 0-11.218-5.753-11.218-15.053s4.41-15.532 11.122-15.532c4.698 0 7.766 2.589 9.3 7.766h11.41c-2.59-10.93-10.068-17.066-20.998-17.066-13.23 0-22.818 10.45-22.818 24.736 0 14.286 9.587 24.449 23.01 24.449 11.601 0 19.655-6.712 21.285-17.737h-11.218c-1.15 5.465-4.602 8.437-9.875 8.437zm52.157-39.885c-5.561 0-9.492 2.205-13.71 7.766v-23.777h-11.698v63.95h11.697v-24.737c0-4.89.48-6.807 2.014-8.916 1.725-2.493 4.794-4.027 7.957-4.027 5.466 0 8.438 4.123 8.438 11.505v26.174h11.697v-28.57c0-5.466-.768-9.013-2.493-11.89-2.78-4.602-8.054-7.478-13.902-7.478zm54.649 27.325c0 4.027-.575 6.232-2.11 8.15-1.63 2.109-4.506 3.45-7.478 3.45-3.739 0-6.52-1.82-7.574-4.985-.575-1.725-.671-2.588-.671-7.286v-25.408h-11.697v26.079c0 6.04.192 8.341.863 10.738 2.013 6.807 7.67 11.122 14.86 11.122 5.178 0 9.205-1.822 13.807-6.04v4.793h11.697v-46.692h-11.697v26.079zm73.73-27.325c-6.328 0-11.314 2.876-14.766 8.629-2.972-5.944-7.382-8.629-13.902-8.629-5.752 0-9.97 2.301-12.943 7.095v-5.849H496.54v46.692h11.697v-26.653c0-3.452.192-4.698 1.055-6.328 1.534-2.876 4.506-4.698 7.862-4.698 3.163 0 5.656 1.63 6.999 4.506.575 1.342.766 3.26.766 6.52v26.653h11.697v-26.078c0-3.356.192-4.89.96-6.615 1.246-3.069 4.41-5.082 7.957-5.082 3.068 0 5.657 1.63 6.807 4.123.671 1.534.959 3.451.959 6.999v26.653h11.697v-27.9c0-4.985-.192-7.478-.959-9.78-1.822-6.327-7.286-10.258-14.19-10.258zm64.908 18.504c0-4.698-.48-7.766-1.726-10.163-2.589-5.465-9.013-8.34-18.6-8.34-7.67 0-13.519 2.108-16.875 6.04-1.821 2.204-2.78 4.601-3.355 9.108h10.93c.383-4.507 3.74-7 9.204-7 5.081 0 8.533 2.493 8.533 6.04 0 2.877-1.917 4.124-7.287 4.699-7.19.863-11.984 2.013-15.436 3.739-5.657 2.684-8.725 7.095-8.725 12.272 0 7.862 7.766 14.286 17.258 14.286 5.37 0 9.971-1.726 14.957-5.561l1.342 4.314h11.314c-1.343-2.876-1.534-4.314-1.534-9.875v-19.559zm-11.41 11.314c0 3.739-.767 5.656-2.876 7.286-2.301 1.822-5.465 2.78-8.917 2.78-4.89 0-8.15-2.3-8.15-5.656 0-3.835 2.973-5.753 12.56-8.054 4.028-.958 5.178-1.342 7.383-2.78v6.424zm59.348-21.573c-2.589-4.985-8.246-8.245-14.286-8.245-5.657 0-9.396 2.11-13.71 7.766v-6.52h-11.697v46.692h11.697v-26.078c0-7.383 3.547-11.601 9.78-11.601 3.163 0 5.656 1.342 7.19 3.835.959 1.534 1.246 3.164 1.246 6.903v26.941h11.697v-30.009c0-4.123-.575-7.287-1.917-9.684z" fill="#0f2279"/><g filter="url(#a)"><linearGradient id="b" gradientUnits="userSpaceOnUse" x1="261.303" y1="90.792" x2="408.92" y2="90.792"><stop offset=".42" stop-color="#081d6e"/><stop offset=".564" stop-color="#00a9f4"/></linearGradient><path fill="url(#b)" d="M356.59 109.408l3.349 57.044-38.007-42.67-53.223 20.805 28.833-49.335-36.239-44.184 55.832 12.187 30.836-48.123 2.256 22.757 3.4 34.101 44.285 11.564 11.008 2.878z"/></g><path fill="#ffe319" d="M405.274 31.687v51.018l-49.477-12.919-3.798-38.1z"/><path d="M364.738 56.365l-2.093-7.87h-3.485v11.537h2.163v-9.08l2.282 9.08h2.242l2.29-9.08v9.08h2.164V48.496h-3.493l-2.07 7.869zm10.207-1.417h5.79v-1.943h-5.79v-2.557h6.224v-1.952h-8.554v11.536h8.774v-1.944h-6.444v-3.14zm7.592-4.5h3.421v9.584h2.33v-9.584h3.415v-1.952h-9.166v1.952zm12.48 7.64l6.318-7.782v-1.81h-8.442v1.952h5.373l-6.058 7.483v2.1h9.371v-1.943h-6.561z"/></svg>